<?xml version="1.0" encoding="UTF-8" standalone="no"?>
<svg width="100px" height="100px" viewBox="0 0 100 100" version="1.1" xmlns="http://www.w3.org/2000/svg" xmlns:xlink="http://www.w3.org/1999/xlink" xmlns:sketch="http://www.bohemiancoding.com/sketch/ns">
    <!-- Generator: Sketch 3.3.2 (12043) - http://www.bohemiancoding.com/sketch -->
    <title>Slice 1 Copy 3</title>
    <desc>Created with Sketch.</desc>
    <defs></defs>
    <g id="Page-1" stroke="none" stroke-width="1" fill="none" fill-rule="evenodd" sketch:type="MSPage">
        <path d="M0,100 C0,100 19.2604909,99.9551166 20.5142238,99.9551166 C22.4949103,-13.4780187 30.6324028,0.551751812 30.6324028,0.551751812 C34.4304749,8.15161955 38.3387131,36.3731334 42.4370999,100 C42.4370999,101.784879 50.525191,-14.4647311 61.3868482,100 C61.3868482,100.758318 66.9909069,43.8552324 74.4543142,100 C74.4543142,100.959118 78.2476568,70.9090718 83.7423864,100 C83.7423864,100 86.5506362,83.5459334 90.2534996,100 C90.2534996,100.758318 91.893059,90.3911797 94.5652129,100 C94.5652129,100.155918 95.9831925,95.5454201 97.8710986,100 C97.8710986,100.155918 99.1048209,98.0723403 100,100" id="Path-5-Copy-2" stroke="#FF5959" opacity="0.467000933" sketch:type="MSShapeGroup"></path>
    </g>
</svg>