<?xml version="1.0" encoding="UTF-8" standalone="no"?>
<svg width="172px" height="116px" viewBox="0 0 172 116" version="1.1" xmlns="http://www.w3.org/2000/svg" xmlns:xlink="http://www.w3.org/1999/xlink" xmlns:sketch="http://www.bohemiancoding.com/sketch/ns">
    <!-- Generator: Sketch 3.3.2 (12043) - http://www.bohemiancoding.com/sketch -->
    <title>Untitled 7 Copy</title>
    <desc>Created with Sketch.</desc>
    <defs></defs>
    <g id="Page-1" stroke="none" stroke-width="1" fill="none" fill-rule="evenodd" sketch:type="MSPage">
        <g id="head-+-nose-copy" sketch:type="MSLayerGroup">
            <path d="M0.804999304,93.8771365 C0.804999304,93.8771365 14.9639758,-19.6558159 105.411445,3.3449099 C118.948554,7.10272241 140.097968,17.6388547 163.684882,20.4513557 C166.907538,24.955262 161.80207,35.6525271 161.80207,35.6525271 C161.80207,35.6525271 153.318671,61.5656135 143.365546,78.9230349 C115.838866,125.863282 4.08007805,124.855465 0.804999304,93.8771365 Z" id="head" fill="#4C4040" sketch:type="MSShapeGroup"></path>
            <path d="M166.42813,28.4012064 C164.969804,29.1741702 162.823701,28.8718709 161.633138,27.7245205 L159.294434,25.4707031 C159.294434,25.4707031 156.731934,27.1826172 154.692871,24.4394531 C157.981934,12.5732422 171.307129,19.1367187 171.307129,22.0078125 C171.307129,26.6591797 166.42813,28.4012064 166.42813,28.4012064 Z" id="nose" fill="#C9544A" sketch:type="MSShapeGroup"></path>
        </g>
    </g>
</svg>