<?xml version="1.0" encoding="UTF-8" standalone="no"?>
<svg width="120px" height="107px" viewBox="0 0 120 107" version="1.1" xmlns="http://www.w3.org/2000/svg" xmlns:xlink="http://www.w3.org/1999/xlink" xmlns:sketch="http://www.bohemiancoding.com/sketch/ns">
    <!-- Generator: Sketch 3.3.3 (12072) - http://www.bohemiancoding.com/sketch -->
    <title>mole-hand-left</title>
    <desc>Created with Sketch.</desc>
    <defs></defs>
    <g id="Page-1" stroke="none" stroke-width="1" fill="none" fill-rule="evenodd" sketch:type="MSPage">
        <g id="left-hand" sketch:type="MSLayerGroup" transform="translate(0.979804, 52.297304)" fill="#3F3333">
            <path d="M75.9319724,11.1421587 L0.916164302,0.893125721 L0.916164302,52.4741804 C0.916164302,52.4741804 70.4551801,42.5189004 77.208454,41.0759546 C83.1193901,39.621198 88.3709387,11.7635342 75.9319724,11.1421587 Z" id="left-arm" sketch:type="MSShapeGroup"></path>
        </g>
        <path d="M79.6897536,65.8670372 C79.7160883,65.869593 79.7423129,65.872182 79.7684279,65.8748039 C90.4868402,66.95093 84.7824517,73.2064304 82.739333,73.5836839" id="Path-74" fill="#3F3333" sketch:type="MSShapeGroup"></path>
        <path d="M79.4471274,74.624399 C79.4734621,74.6269548 79.4996867,74.6295438 79.5258017,74.6321657 C90.244214,75.7082918 84.3368507,82.0342549 82.293732,82.4115084" id="Path-74-Copy-2" fill="#3F3333" sketch:type="MSShapeGroup" transform="translate(82.605350, 78.517954) rotate(26.000000) translate(-82.605350, -78.517954) "></path>
        <path d="M77.2998919,82.7002704 C77.3262265,82.7028262 77.3524511,82.7054152 77.3785661,82.7080371 C88.0969784,83.7841632 82.1896152,90.1101263 80.1464964,90.4873798" id="Path-74-Copy-3" fill="#3F3333" sketch:type="MSShapeGroup" transform="translate(80.458114, 86.593825) rotate(42.000000) translate(-80.458114, -86.593825) "></path>
        <g id="candle" sketch:type="MSLayerGroup" transform="translate(41.979804, 4.297304)">
            <g id="Path-168-+-Path-169" transform="translate(38.020196, 15.702696)" sketch:type="MSShapeGroup">
                <path d="M4.5047433,33.125279 L0.298828125,31.2512556 L3.12555804,11.8233817 L11.2501395,18.0040458 L5.64648438,33.2773438 L4.5047433,33.125279 L4.5047433,33.125279 Z" id="Path-168" fill="#FCF1D5"></path>
                <path d="M4.32435826,2.75251116 L4.04199219,4.25418527 L15.5671038,8.63225446 L16.6965681,0.284179687 L5.83691406,0.234514509 L4.32435826,2.75251116 L4.32435826,2.75251116 Z" id="Path-169" fill="#FCF5E3"></path>
            </g>
            <g transform="translate(39.720856, 52.728624) rotate(14.000000) translate(-39.720856, -52.728624) translate(11.220856, 5.728624)" id="Shape" sketch:type="MSShapeGroup">
                <path d="M27.5588709,1.98202551 C27.5096045,1.41356695 27.4375998,0.841318667 27.543712,0.272860108 C27.6422449,0.405500439 27.8355208,0.666991376 27.9340536,0.799631706 C28.7109469,1.99339468 29.5029992,3.20610627 29.8478641,4.60830405 C29.999453,5.4950994 30.0979858,6.49558647 28.9004331,5.99155321 C28.3774513,5.01380449 28.0666939,3.94889212 27.7521468,2.89534893 C27.7180393,2.73997025 27.6498243,2.42921291 27.6157168,2.27004451 L27.5588709,1.98202551 L27.5588709,1.98202551 Z" fill="#070401"></path>
                <path d="M33.7512795,4.29754671 C33.9256068,4.26343919 34.2742614,4.19522416 34.4485887,4.15732693 C35.2936971,4.20659334 36.3396608,3.97163046 36.8778016,4.80915941 C38.1094618,5.6391089 37.105185,7.10952171 37.0293905,8.2426491 C35.8394173,10.0465576 37.3590965,10.5846984 38.586967,11.11147 C38.0564057,12.2787049 37.03697,13.0328599 35.9417398,13.6316362 C34.5092242,13.8741786 33.2737743,13.085916 32.09896,12.3961863 C31.8829457,12.0247934 31.6404034,11.6685594 31.4243891,11.3009562 C31.2273235,10.4179505 31.0188887,9.53494489 30.8824586,8.64435982 C31.2311132,7.78788226 31.5267117,6.90866635 31.7654643,6.01050183 C32.3490817,5.3510899 33.0691292,4.84326692 33.7512795,4.29754671 L33.7512795,4.29754671 L33.7512795,4.29754671 Z" fill="#FCF5E3"></path>
                <path d="M22.2608372,7.49228381 C22.3555803,6.76465685 22.7193937,5.82101564 23.5228152,5.69974448 C26.2400471,6.04460934 29.067181,6.95035331 31.7654643,6.01050183 C31.5267117,6.90866635 31.2311132,7.78788226 30.8824586,8.64435982 C31.0188887,9.53494489 31.2273235,10.4179505 31.4243891,11.3009562 C30.643706,11.2327411 30.6778136,11.9262606 30.6361266,12.5022986 C29.9653455,11.8694147 30.1813598,11.0243063 30.2988412,10.2170952 C29.5977423,10.095824 29.5636348,10.7628154 29.3855178,11.2516897 C28.4418766,12.0210037 27.2708519,11.0887316 26.2248882,11.0091474 C26.5887017,12.0285831 26.0467712,13.6088979 24.7468959,12.976014 C24.8984849,14.4956933 23.4924974,13.7225896 22.5829637,14.0030292 C22.3101036,11.8428866 22.3555803,9.66000578 22.2608372,7.49228381 L22.2608372,7.49228381 L22.2608372,7.49228381 Z" fill="#F7EBDA"></path>
                <path d="M29.3855178,11.2516897 C29.5636348,10.7628154 29.5977423,10.095824 30.2988412,10.2170952 C30.1813598,11.0243063 29.9653455,11.8694147 30.6361266,12.5022986 C30.9241456,13.8855477 31.4926042,15.4582831 32.9933348,15.8599938 C33.8498123,15.7387226 34.6987104,15.5530262 35.5665572,15.4848111 C35.6082441,16.18591 35.6916181,17.5805284 35.733305,18.2778375 C35.5627674,19.9907927 35.4604449,21.7113272 35.2216923,23.4129132 C35.0094678,24.4664564 34.8654583,25.5389482 34.9488322,26.6152297 C34.513014,29.7682799 34.0279293,32.9137506 33.7929665,36.0933288 C32.6484699,36.9649652 31.4471275,36.4836703 30.2761028,35.9796371 C30.9620428,37.3818348 32.2543386,37.8138633 33.7550692,37.2643534 C33.0122834,39.7125149 37.3439376,36.460932 36.7641099,38.655182 C36.8740119,40.7622684 33.7702281,39.8375758 33.2358771,41.2435633 C33.0539703,41.9598211 32.7811102,42.619233 31.9208429,42.5964947 C31.6896698,42.3160551 31.4584966,42.0356156 31.2235338,41.7627555 C31.041627,42.7821911 29.1050782,42.7405042 29.3893075,41.5732693 C29.5295273,40.2013893 28.339554,39.2766967 27.9075255,38.079144 C27.2253752,38.1587282 26.0884581,38.5680184 26.9032487,37.5826902 C27.3883334,37.2908815 27.8772077,37.0028625 28.3585026,36.7034743 C28.8397976,37.0976056 29.1429755,37.6243772 29.3248822,38.2193638 C29.7038546,38.0260879 30.1358831,37.8782886 30.4163226,37.5372135 C29.9426072,37.0672878 29.4309945,36.639049 28.9004331,36.2373383 L28.9838071,35.9417398 C29.0558118,35.3012765 28.6427319,34.0999341 27.7748852,34.5660701 C27.0851555,34.827561 27.6043476,35.486973 27.6687729,35.9796371 C26.9714638,36.4268245 26.1339348,36.4419833 25.3380928,36.3169225 C25.8193877,35.9076323 26.3385799,35.5438188 26.8236645,35.1345287 C26.8122954,34.3955325 26.4067949,33.7285412 26.2400471,33.0160731 C26.9449357,32.674998 27.6687729,32.2316003 28.4797738,32.4438248 C28.381241,31.522922 27.1382116,31.9587402 26.5735428,31.4509172 C27.0283096,30.4845377 27.6232962,29.5674245 27.7597263,28.4873532 C28.1349089,28.6995778 28.491143,28.9421201 28.8701153,29.1581343 C28.6199936,28.5214608 28.2751287,27.9302639 27.9454228,27.3352772 C27.3087492,27.8658386 26.7061831,28.6124141 25.8307569,28.0287967 C26.077089,27.5588709 26.365108,27.1116835 26.5962811,26.6341783 C26.0619301,26.7402906 25.5351585,26.8539823 25.0008074,26.9373562 C25.2547189,26.6872345 25.5124201,26.4371127 25.7663316,26.1869909 C25.4896818,26.1680423 24.9363821,26.1301451 24.6597323,26.1111965 C24.9022746,25.7322241 25.1751347,25.3797798 25.3987284,24.9894382 C25.1637655,24.1822271 24.1367504,24.1102223 23.469759,23.8335725 C22.977095,21.4005699 23.1590017,18.7705016 22.7345526,16.2768634 C22.7193937,15.5151289 22.6663376,14.7571842 22.5829637,14.0030292 C23.4924974,13.7225896 24.8984849,14.4956933 24.7468959,12.976014 C26.0467712,13.6088979 26.5887017,12.0285831 26.2248882,11.0091474 C27.2708519,11.0887316 28.4418766,12.0210037 29.3855178,11.2516897 L29.3855178,11.2516897 L29.3855178,11.2516897 Z M28.889064,32.2240208 C29.0747604,33.2017696 28.0477453,33.2434565 27.9984789,34.0506677 C28.3585026,34.0809855 29.313513,33.2851435 29.1619241,34.0999341 C28.9307509,35.1762156 29.6962751,34.6646029 30.2723131,34.403112 C30.5679116,33.5428447 29.2831952,33.7247514 29.177083,33.0463909 C30.4352712,33.251036 29.6735368,31.9928477 28.889064,32.2240208 L28.889064,32.2240208 L28.889064,32.2240208 Z" fill="#FCF1D5"></path>
                <path d="M30.6361266,12.5022986 C30.6778136,11.9262606 30.643706,11.2327411 31.4243891,11.3009562 C31.6404034,11.6685594 31.8829457,12.0247934 32.09896,12.3961863 C31.6404034,14.4540063 34.7631357,15.6250309 35.953109,13.9802908 C35.9682679,14.2569407 36.0023754,14.8026609 36.0175343,15.0793107 C35.9038426,15.1816332 35.6802489,15.3824886 35.5665572,15.4848111 C34.6987104,15.5530262 33.8498123,15.7387226 32.9933348,15.8599938 C31.4926042,15.4582831 30.9241456,13.8855477 30.6361266,12.5022986 L30.6361266,12.5022986 L30.6361266,12.5022986 Z" fill="#EBDDC2"></path>
                <path d="M35.953109,13.9802908 C34.7631357,15.6250309 31.6404034,14.4540063 32.09896,12.3961863 C33.2737743,13.085916 34.5092242,13.8741786 35.9417398,13.6316362 L35.953109,13.9802908 L35.953109,13.9802908 Z" fill="#D8C6A8"></path>
                <path fill="#CAB487" d="M35.5665572,15.4848111 C35.6802489,15.3824886 35.9038426,15.1816332 36.0175343,15.0793107 L36.063011,15.4393345 C35.9720576,16.3867654 35.8621556,17.3341963 35.733305,18.2778375 C35.6916181,17.5805284 35.6082441,16.18591 35.5665572,15.4848111 L35.5665572,15.4848111 L35.5665572,15.4848111 Z"></path>
                <path fill="#9C7B4D" d="M34.9488322,26.6152297 C34.8654583,25.5389482 35.0094678,24.4664564 35.2216923,23.4129132 C35.1951642,24.485405 35.0738931,25.5465276 34.9488322,26.6152297 L34.9488322,26.6152297 L34.9488322,26.6152297 Z"></path>
                <path d="M23.469759,23.5116384 C24.1367504,23.7882882 25.3545341,23.9959535 25.5894969,24.8031646 C25.3659032,25.1935062 25.2433497,25.6188279 25.0008074,25.9978002 C25.2774572,26.0167489 25.5541072,25.9788515 25.830757,25.9978001 C25.5768455,26.2479219 25.5920043,26.6057561 25.3380928,26.8558779 C25.8724438,26.772504 26.2893135,26.7662506 26.8236645,26.6601384 C26.5924914,27.1376436 26.4863791,27.4659928 26.2400471,27.9359186 C27.1154732,28.519536 27.3441715,27.6392599 27.9808451,27.1086986 C28.310551,27.7036852 28.8041729,28.6027747 29.0542947,29.2394483 C28.6753223,29.0234341 28.156109,28.8978537 27.7809263,28.6856291 C27.6444963,29.7657004 27.2784314,30.3583997 26.8236645,31.3247793 C27.3883334,31.8326023 28.5302481,31.7313567 28.6287809,32.6522596 C27.8177801,32.4400351 27.2551502,32.6549421 26.5502616,32.9960172 C26.7170094,33.7084853 27.001321,34.5672895 27.0126902,35.3062856 C26.5276055,35.7155758 26.0707919,36.0439777 25.5894969,36.4532678 C25.1213604,36.3704717 24.7506857,35.9872165 24.5839378,35.6196133 C24.5005639,34.6267057 24.6673117,33.5580036 24.2011757,32.6522596 C24.2011757,31.4547069 24.3830825,30.2344159 24.0116895,29.0785501 C23.6592452,27.3504361 23.3295393,25.6147427 23.469759,23.8335725 L23.469759,23.5116384 L23.469759,23.5116384 Z" fill="#F3E3C0"></path>
                <path d="M4.53250958,25.3684106 C5.23739819,25.2433497 5.54815553,25.8686542 5.87407178,26.3613182 C7.0602553,27.8165721 6.15830105,29.7682799 6.06734769,31.4584966 L5.71111365,31.4660761 C5.74143144,29.3627794 4.63862184,27.4527587 4.53250958,25.3684106 L4.53250958,25.3684106 L4.53250958,25.3684106 Z" fill="#0C0702"></path>
                <path d="M49.3384132,27.5929784 C51.0210505,27.9302639 51.3280181,30.0790372 51.1877984,31.4736555 L50.4146947,31.4736555 C49.6529603,30.3140001 49.4824227,28.9421201 49.3384132,27.5929784 L49.3384132,27.5929784 L49.3384132,27.5929784 Z" fill="#110401"></path>
                <path fill="#937547" d="M24.0116895,29.0785501 C24.3830825,30.2344159 24.2011757,31.4547069 24.2011757,32.6522596 C23.5758713,31.5608192 23.9927409,30.2647337 24.0116895,29.0785501 L24.0116895,29.0785501 L24.0116895,29.0785501 Z"></path>
                <path d="M1.58410452,31.5570295 C2.55806352,30.4542199 4.46808427,32.0269552 5.71111365,31.4660761 L6.06734769,31.4584966 C7.15499839,31.6404034 8.60646258,30.4921171 9.40988401,31.5418706 C9.69411329,34.0279293 9.25450534,36.5405162 9.11807528,39.0303647 C8.53066811,39.272907 7.92052259,39.4396548 7.29142845,39.5268185 C5.96502514,39.4737623 4.64241156,39.409337 3.31979798,39.5116596 L2.99767147,39.451024 C2.21319866,38.3216863 3.37664384,38.8636168 4.09669135,38.9773085 C4.47566372,38.298948 4.89632305,37.1923486 3.80867234,36.9232783 C4.28996726,36.4760909 4.97969698,36.5329367 5.57089388,36.35103 C4.99485587,34.9753603 5.18434206,33.3306202 4.30133643,32.0875908 C4.2482803,32.8076383 4.14216803,34.2401539 4.0891119,34.9602014 C3.53960196,34.2818408 3.42591025,33.4177838 3.30463909,32.5878343 C2.61869909,32.8265869 2.12603501,33.4026249 1.52346894,33.7891767 C1.53862783,33.2282976 1.56894562,32.1141189 1.58410452,31.5570295 L1.58410452,31.5570295 L1.58410452,31.5570295 Z" fill="#F4E9D2"></path>
                <path d="M46.91299,31.3372255 C47.2730138,30.8104539 48.0120099,31.2121646 48.5198329,31.2652207 C48.6638424,32.6105727 47.3147007,32.2960256 46.91299,31.3372255 L46.91299,31.3372255 L46.91299,31.3372255 Z" fill="#E2C2A2"></path>
                <path d="M54.6516059,31.7503054 C54.6137086,33.0653395 54.5758114,34.3917428 54.6553956,35.7067769 C54.59476,36.419245 54.5417039,37.1279233 54.4772786,37.8403914 C54.2612643,38.9166729 53.5563757,39.6556691 52.4042997,39.5571363 C51.0566906,40.2644548 49.8263544,39.6854286 48.7889032,39.5154493 C48.6259451,39.4851315 48.2962392,39.4282856 48.133281,39.3979679 C47.064579,37.901027 49.2323009,39.6329307 49.5809555,38.5642286 C49.7628622,37.8934475 49.4255768,37.2340356 49.3232543,36.5784134 C49.7856006,36.5253573 50.2479469,36.4647217 50.7027137,36.3434505 C50.5966015,35.3164354 50.5776528,34.2553128 50.0774093,33.3230407 C49.7969698,32.4172968 48.4175103,30.4011637 49.2701982,34.0885649 C48.5463609,34.183308 49.039025,33.0084937 48.8154313,32.5802549 C48.1257016,32.4703529 47.6974628,33.0501806 47.1782707,33.3760969 C47.1214248,32.6901569 47.0153125,32.0117963 46.91299,31.3372255 C47.3147007,32.2960256 48.6638424,32.6105727 48.5198329,31.2652207 C49.1451373,31.3789125 49.7780211,31.4547069 50.4146947,31.4736555 L51.1877984,31.4736555 C52.3360847,31.7351465 53.9315583,30.4314815 54.6516059,31.7503054 L54.6516059,31.7503054 Z" fill="#F8E8CF"></path>
                <path d="M46.6856066,34.3841634 C46.7765599,33.4102044 46.1360966,32.0913805 46.91299,31.3372255 C47.0153125,32.0117963 47.1214248,32.6901569 47.1782707,33.3760969 C47.6974628,33.0501806 48.1257016,32.4703529 48.8154313,32.5802549 C49.039025,33.0084937 48.5463609,34.183308 49.2701982,34.0885649 C48.4175103,30.4011637 49.7969698,32.4172968 50.0774093,33.3230407 C50.5776528,34.2553128 50.5966015,35.3164354 50.7027137,36.3434505 C50.2479469,36.4647217 49.7856006,36.5253573 49.3232543,36.5784134 C49.4255768,37.2340356 49.7628622,37.8934475 49.5809555,38.5642286 C49.2323009,39.6329307 47.064579,37.901027 48.133281,39.3979679 C47.7391498,39.299435 47.352598,39.1781639 46.9736256,39.0341544 C46.9433078,38.8711963 46.8864619,38.5414903 46.8561441,38.3785322 C46.8750928,37.0521289 47.269224,35.6423516 46.6856066,34.3841634 L46.6856066,34.3841634 L46.6856066,34.3841634 Z" fill="#EAD0B6"></path>
                <path fill="#926841" d="M54.6516059,31.7503054 C55.0343679,33.0236525 55.0343679,34.3424764 54.6553956,35.7067769 C54.5758114,34.3917428 54.6137086,33.0653395 54.6516059,31.7503054 L54.6516059,31.7503054 L54.6516059,31.7503054 Z"></path>
                <path d="M4.30133643,32.0875908 C5.18434206,33.3306202 4.99485587,34.9753603 5.57089388,36.35103 C4.97969698,36.5329367 4.28996726,36.4760909 3.80867234,36.9232783 C4.89632305,37.1923486 4.47566372,38.298948 4.09669135,38.9773085 C3.37664384,38.8636168 2.21319866,38.3216863 2.99767147,39.451024 C2.57701213,39.3676501 2.16393225,39.2577481 1.76222153,39.121318 C1.31503413,37.3818348 1.57273535,35.555188 1.52346894,33.7891767 C2.12603501,33.4026249 2.61869909,32.8265869 3.30463909,32.5878343 C3.42591025,33.4177838 3.53960196,34.2818408 4.0891119,34.9602014 C4.14216803,34.2401539 4.2482803,32.8076383 4.30133643,32.0875908 L4.30133643,32.0875908 L4.30133643,32.0875908 Z" fill="#E2D3C0"></path>
                <path d="M28.889064,32.2240208 C29.6735368,31.9928477 30.4352712,33.251036 29.177083,33.0463909 C29.2831952,33.7247514 30.5679116,33.5428447 30.2723131,34.403112 C29.6962751,34.6646029 28.9307509,35.1762156 29.1619241,34.0999341 C29.313513,33.2851435 28.3585026,34.0809855 27.9984789,34.0506677 C28.0477453,33.2434565 29.0747604,33.2017696 28.889064,32.2240208 L28.889064,32.2240208 L28.889064,32.2240208 Z" fill="#F4E0BF"></path>
                <path d="M27.7748852,34.5660701 C28.6427319,34.0999341 29.0558118,35.3012765 28.9838071,35.9417398 C28.5631477,35.6082441 28.1008014,35.7787817 27.6687729,35.9796371 C27.6043476,35.486973 27.0851555,34.827561 27.7748852,34.5660701 L27.7748852,34.5660701 L27.7748852,34.5660701 Z" fill="#F2DEBD"></path>
                <path fill="#AD8663" d="M46.6856066,34.3841634 C47.269224,35.6423516 46.8750928,37.0521289 46.8561441,38.3785322 C46.446854,37.0862364 46.6552888,35.7105667 46.6856066,34.3841634 L46.6856066,34.3841634 L46.6856066,34.3841634 Z"></path>
                <path d="M24.993228,37.1847692 C24.6445734,36.6769462 23.1362633,35.4263374 24.5839378,35.6196133 C24.7506857,35.9872165 25.0008074,36.2183896 25.3380928,36.3169225 C26.1339348,36.4419833 26.9714638,36.4268245 27.6687729,35.9796371 C28.1008014,35.7787817 28.5631477,35.6082441 28.9838071,35.9417398 L28.9004331,36.2373383 C28.7640031,36.35103 28.491143,36.5859929 28.3585026,36.7034743 C27.8772077,37.0028625 27.3883334,37.2908815 26.9032487,37.5826902 C26.2514162,37.5182649 25.6071632,37.4121526 24.993228,37.1847692 L24.993228,37.1847692 L24.993228,37.1847692 Z" fill="#F3E3C0"></path>
                <path d="M33.7929665,36.0933288 C34.1719388,35.9417398 34.5547009,35.80152 34.9412528,35.66509 C34.8389302,36.3737683 34.224995,36.7944277 33.7550692,37.2643534 C32.2543386,37.8138633 30.9620428,37.3818348 30.2761028,35.9796371 C31.4471275,36.4836703 32.6484699,36.9649652 33.7929665,36.0933288 L33.7929665,36.0933288 L33.7929665,36.0933288 Z" fill="#FCF1D5"></path>
                <path d="M28.3585026,36.7034743 C28.491143,36.5859929 28.7640031,36.35103 28.9004331,36.2373383 C29.4309945,36.639049 29.9426072,37.0672878 30.4163226,37.5372135 C30.1358831,37.8782886 29.7038546,38.0260879 29.3248822,38.2193638 C29.1429755,37.6243772 28.8397976,37.0976056 28.3585026,36.7034743 L28.3585026,36.7034743 L28.3585026,36.7034743 Z" fill="#F4E0C0"></path>
                <path d="M24.993228,37.1847692 C25.6071632,37.4121526 26.2514162,37.5182649 26.9032487,37.5826902 C26.0884581,38.5680184 27.2253752,38.1587282 27.9075255,38.079144 C28.339554,39.2766967 29.5295273,40.2013893 29.3893075,41.5732693 C29.1050782,42.7405042 31.041627,42.7821911 31.2235338,41.7627555 C31.4584966,42.0356156 31.6896698,42.3160551 31.9208429,42.5964947 C29.7682799,43.0436821 27.5475018,42.9262006 25.4442051,42.331214 C25.1561861,40.6296281 24.9780691,38.9128832 24.993228,37.1847692 L24.993228,37.1847692 L24.993228,37.1847692 Z" fill="#F1DAB8"></path>
                <path d="M52.4042997,39.5571363 C53.5563757,39.6556691 54.2612643,38.9166729 54.4772786,37.8403914 C54.4507505,38.6059156 54.7956154,39.1099489 55.5649293,39.2274303 C56.542678,39.4131267 56.0803317,40.7471095 55.322387,40.9555443 C52.3398744,41.8764472 49.1565064,41.8385499 46.158835,40.9934415 C45.6244839,40.7584787 44.8210625,40.5879411 45.1052918,39.8148375 C45.1242404,38.8598271 46.3180034,39.0644722 46.9736256,39.0341544 C47.352598,39.1781639 47.7391498,39.299435 48.133281,39.3979679 C48.2962392,39.4282856 48.6259451,39.4851315 48.7889032,39.5154493 C49.9750868,39.7617813 51.2294853,39.9626367 52.4042997,39.5571363 L52.4042997,39.5571363 L52.4042997,39.5571363 Z" fill="#F39D14"></path>
                <path d="M0.685939994,40.9820724 C-0.757944745,40.2203379 0.363813478,38.4391678 1.76222153,39.121318 C2.16393225,39.2577481 2.57701213,39.3676501 2.99767147,39.451024 L3.31979798,39.5116596 C4.64241156,39.8451553 5.96502514,39.848945 7.29142845,39.5268185 C7.92052259,39.4396548 8.53066811,39.272907 9.11807528,39.0303647 C9.76990777,39.0644722 10.9636707,38.8598271 10.9826194,39.8148375 C11.2403206,40.561413 10.4672169,40.7622684 9.96318368,41.042708 C6.92761497,41.8916061 3.71013953,41.8840266 0.685939994,40.9820724 L0.685939994,40.9820724 L0.685939994,40.9820724 Z" fill="#F2AF15"></path>
                <path fill="#FAD87A" d="M3.31979798,39.5116596 C4.64241156,39.409337 5.96502514,39.4737623 7.29142845,39.5268185 C5.96502514,39.848945 4.64241156,39.8451553 3.31979798,39.5116596 L3.31979798,39.5116596 L3.31979798,39.5116596 Z"></path>
                <path fill="#FBD276" d="M48.7889032,39.5154493 C49.9978251,39.4472343 51.1915881,39.5116596 52.4042997,39.5571363 C51.2294853,39.9626367 49.9750868,39.7617813 48.7889032,39.5154493 L48.7889032,39.5154493 L48.7889032,39.5154493 Z"></path>
                <path d="M0.685939994,40.9820724 C3.71013953,41.8840266 6.92761497,41.8916061 9.96318368,41.042708 C9.85707141,41.535372 9.77748721,42.0356156 9.61073937,42.5131208 C9.75853859,41.3041989 8.72394402,42.0583539 8.09106015,42.2137326 C5.85891288,43.1194766 3.21368572,42.8617753 1.15586574,41.6301151 C1.0383843,41.467157 0.80342143,41.1450305 0.685939994,40.9820724 L0.685939994,40.9820724 L0.685939994,40.9820724 Z" fill="#C18A20"></path>
                <path d="M46.158835,40.9934415 C49.1565064,41.8385499 52.3398744,41.8764472 55.322387,40.9555443 C54.9851015,41.5315823 54.9623632,42.1909942 54.9775221,42.8428267 L54.6970825,42.9034623 C54.6516059,42.7063967 54.5568628,42.3122654 54.5075964,42.1151998 C52.2413416,42.5472283 49.8538156,43.2445374 47.6444067,42.1379381 C47.2502754,42.1038306 46.7538216,41.6793815 46.4241156,42.0773025 C46.3255828,41.7172788 46.2346295,41.357255 46.158835,40.9934415 L46.158835,40.9934415 L46.158835,40.9934415 Z" fill="#CC751D"></path>
                <path d="M31.9208429,42.5964947 C32.7811102,42.619233 33.0539703,41.9598211 33.2358771,41.2435633 C33.2661949,41.5126337 33.3306202,42.0469847 33.360938,42.3160551 C34.0355088,42.1796251 35.198954,41.7892835 35.2406409,42.8504062 C35.7143564,44.2184964 34.0392985,44.1730197 33.4935783,45.0522357 C32.1709647,44.3852443 30.6209677,45.1356096 29.2149802,45.1204507 C27.7483571,45.4804744 26.3954258,44.7717961 24.9477513,44.7376886 C24.2618113,44.2601834 22.6663376,43.7675193 23.3219598,42.687448 C23.4849179,41.6111665 24.7393165,42.2440504 25.4442051,42.331214 C27.5475018,42.9262006 29.7682799,43.0436821 31.9208429,42.5964947 L31.9208429,42.5964947 L31.9208429,42.5964947 Z" fill="#F3A814"></path>
                <path d="M1.15586574,41.6301151 C3.21368572,42.8617753 5.85891288,43.1194766 8.09106015,42.2137326 C8.72394402,42.0583539 9.75853859,41.3041989 9.61073937,42.5131208 C9.231767,44.6505249 5.93470735,45.1318199 7.55670911,47.777047 C7.15878812,47.5117664 6.77602602,47.2275371 6.3894742,46.9508872 C6.24167498,45.9655591 5.78690813,44.279132 4.48324317,44.9878104 C4.21417278,45.0257076 3.67603201,45.1052918 3.40696163,45.1469787 C3.02798926,44.8854878 2.65659633,44.6239969 2.27004451,44.3814546 C1.64095037,43.5856126 1.34914165,42.6116536 1.15586574,41.6301151 L1.15586574,41.6301151 L1.15586574,41.6301151 Z" fill="#E7B526"></path>
                <path d="M46.4241156,42.0773025 C46.7538216,41.6793815 47.2502754,42.1038306 47.6444067,42.1379381 C49.8538156,43.2445374 52.2413416,42.5472283 54.5075964,42.1151998 C54.5568628,42.3122654 54.6516059,42.7063967 54.6970825,42.9034623 C54.265054,43.9266877 53.2266697,44.5065154 52.4535661,45.2493013 C52.3929305,46.1057788 52.4497764,46.9660461 52.6241037,47.8301031 C52.3322949,47.557243 52.0480657,47.269224 51.7789953,46.9774153 C51.4985557,46.5226485 51.2446442,46.0527227 50.9907327,45.5865867 C50.012984,45.0484459 49.6794883,46.2346295 49.2815673,46.871303 C48.572889,47.4056541 47.0380509,49.190614 48.3682439,46.0148255 C48.394772,45.5790073 48.6373143,44.9802309 48.1181221,44.7338989 C47.1555323,44.1502814 46.6401299,43.1535841 46.4241156,42.0773025 L46.4241156,42.0773025 L46.4241156,42.0773025 Z" fill="#ECA423"></path>
                <path d="M4.48324317,44.9878104 C5.78690813,44.279132 6.24167498,45.9655591 6.3894742,46.9508872 L6.38189475,47.2616446 C5.8134362,47.6444067 5.35866935,48.1635988 4.86600526,48.6373143 C4.60451433,48.0499071 4.35439256,47.4549205 3.93752295,46.9622564 C4.52493013,46.446854 4.6007246,45.7230168 4.48324317,44.9878104 L4.48324317,44.9878104 L4.48324317,44.9878104 Z" fill="#DF9817"></path>
                <path d="M24.9477513,44.7376886 C26.3954258,44.7717961 27.7483571,45.4804744 29.2149802,45.1204507 C29.1884521,45.760914 28.1955445,46.3975876 28.8739051,46.9470975 C29.7228032,47.1744809 29.8592332,45.8821851 30.6550752,45.7950215 C30.5565424,46.4127465 30.3935843,47.0191023 30.329159,47.640617 C30.8559306,47.6519861 31.3864919,47.6481964 31.9094738,47.7429395 C30.7232902,48.3113981 30.4314815,49.5695863 30.2533645,50.7633493 C29.6659573,50.767139 29.0785501,50.767139 28.4949327,50.7633493 C28.5707272,48.0423277 25.0121766,47.3980746 24.9477513,44.7376886 L24.9477513,44.7376886 L24.9477513,44.7376886 Z" fill="#EEB529"></path>
                <path d="M29.2149802,45.1204507 C30.6209677,45.1356096 32.1709647,44.3852443 33.4935783,45.0522357 C33.2889332,46.1057788 32.8948019,47.1858501 31.9094738,47.7429395 C31.3864919,47.6481964 30.8559306,47.6519861 30.329159,47.640617 C30.3935843,47.0191023 30.5565424,46.4127465 30.6550752,45.7950215 C29.8592332,45.8821851 29.7228032,47.1744809 28.8739051,46.9470975 C28.1955445,46.3975876 29.1884521,45.760914 29.2149802,45.1204507 L29.2149802,45.1204507 L29.2149802,45.1204507 Z" fill="#F4C12B"></path>
                <path d="M3.40696163,45.1469787 C3.67603201,45.1052918 4.21417278,45.0257076 4.48324317,44.9878104 C4.6007246,45.7230168 4.52493013,46.446854 3.93752295,46.9622564 C3.64950395,47.2616446 3.3539055,47.5496636 3.04693788,47.8301031 C3.12652207,46.9281489 3.24400351,46.0337741 3.40696163,45.1469787 L3.40696163,45.1469787 L3.40696163,45.1469787 Z" fill="#F1B412"></path>
                <path d="M49.2815673,46.871303 C49.6794883,46.2346295 50.012984,45.0484459 50.9907327,45.5865867 C51.2446442,46.0527227 51.4985557,46.5226485 51.7789953,46.9774153 C51.6160371,47.5079766 51.4796071,48.0536968 51.274962,48.5766787 C51.4758174,46.844775 49.8917129,49.3459926 49.7173856,47.6785142 C49.6074836,47.4776588 49.3914693,47.0721584 49.2815673,46.871303 L49.2815673,46.871303 L49.2815673,46.871303 Z" fill="#E08318"></path>
                <path d="M4.86600526,48.6373143 C5.35866935,48.1635988 5.8134362,47.6444067 6.38189475,47.2616446 C6.66612403,48.3189775 6.85939994,49.4293666 7.48470436,50.3540591 C6.82529243,50.5094378 6.3894742,51.0437889 5.96502514,51.5288735 C5.69974448,51.1802189 5.46478161,50.808826 5.21844957,50.4488022 C5.05549145,49.8538156 4.95316891,49.2436701 4.86600526,48.6373143 L4.86600526,48.6373143 L4.86600526,48.6373143 Z" fill="#E2B639"></path>
                <path d="M49.7173856,47.6785142 C49.8917129,49.3459926 51.4758174,46.844775 51.274962,48.5766787 C51.0741067,49.1034503 50.8012465,49.5999041 50.5359659,50.0963579 C49.903082,50.0660401 49.0882914,49.8651848 49.2247215,50.7936671 C49.2891468,51.5099249 48.4857253,50.8315643 48.1446502,50.8543027 C48.6183657,49.7704417 49.1565064,48.7168985 49.7173856,47.6785142 L49.7173856,47.6785142 L49.7173856,47.6785142 Z" fill="#E9AD3D"></path>
                <path d="M49.2247215,50.7936671 C49.0882914,49.8651848 49.903082,50.0660401 50.5359659,50.0963579 C49.8841334,53.0599219 46.8258264,54.7690873 44.0669075,55.4663965 C42.1189895,55.4929245 40.0839078,54.9737324 38.1852563,55.5876676 C38.037457,55.5914573 37.7418586,55.6028265 37.5940594,55.610406 C36.1880719,55.4247095 34.7782946,55.3299664 33.3647277,55.3337561 C33.360938,54.8183537 33.360938,54.306741 33.3647277,53.7951283 C34.7707152,53.8140769 36.1880719,53.8330255 37.5940594,53.7193338 C37.7456483,53.7155441 38.0488262,53.7079646 38.2004152,53.7079646 C39.5116596,53.7496516 40.8380629,53.8330255 42.1568867,53.7572311 C44.4761976,53.7534413 46.8106675,52.8022207 48.1446502,50.8543027 C48.4857253,50.8315643 49.2891468,51.5099249 49.2247215,50.7936671 L49.2247215,50.7936671 L49.2247215,50.7936671 Z" fill="#F3CF4A"></path>
                <path d="M5.96502514,51.5288735 C6.3894742,51.0437889 6.82529243,50.5094378 7.48470436,50.3540591 C9.98592202,54.2726335 15.1475257,54.2915821 19.2442171,53.7231235 C20.5592512,53.7534413 21.8818648,53.8102872 23.2006887,53.7496516 C23.9017875,53.7837591 24.6028864,53.7951283 25.307775,53.7723899 C25.3456723,54.416643 25.3722003,55.0646857 25.3949387,55.7127285 C24.663522,55.6975696 23.9321053,55.678621 23.2006887,55.636934 C21.8856545,55.3413356 20.5706204,55.3299664 19.2517965,55.6028265 C19.1002076,55.6066162 18.7970297,55.6141957 18.6454407,55.6179854 C17.3266169,55.3261767 16.0115827,55.3337561 14.6965486,55.636934 C11.3274842,55.9476914 7.71966723,54.5000169 5.96502514,51.5288735 L5.96502514,51.5288735 L5.96502514,51.5288735 Z" fill="#EFD348"></path>
                <path d="M28.4949327,50.7633493 C29.0785501,50.767139 29.6659573,50.767139 30.2533645,50.7633493 C30.4201123,51.096845 30.5868602,51.4303407 30.7498183,51.7638364 C29.9615558,52.8893843 28.9648584,52.1049115 27.9795303,51.7638364 C28.1462781,51.4303407 28.3206054,51.096845 28.4949327,50.7633493 L28.4949327,50.7633493 L28.4949327,50.7633493 Z" fill="#F2A714"></path>
                <path d="M27.1950575,52.6582112 C27.4527587,52.358823 27.7142496,52.0594348 27.9795303,51.7638364 C28.9648584,52.1049115 29.9615558,52.8893843 30.7498183,51.7638364 C31.1325804,52.1693368 31.5191322,52.5748372 31.8905252,52.9879171 C32.0496936,54.0452501 32.0496936,55.1063727 31.8981046,56.1637056 C31.6366137,56.4138274 31.3789125,56.6639492 31.1174215,56.9140709 C30.8256128,55.8718969 30.219257,54.8676201 30.6323369,53.7648105 C30.2723131,54.1437829 29.9539763,54.5568628 29.5939526,54.9320454 C28.7981106,54.0452501 26.9108282,54.2802129 27.1950575,52.6582112 L27.1950575,52.6582112 L27.1950575,52.6582112 Z" fill="#F3BA29"></path>
                <path d="M25.307775,53.7723899 C25.815598,53.2153006 26.5318558,52.9727582 27.1950575,52.6582112 C26.9108282,54.2802129 28.7981106,54.0452501 29.5939526,54.9320454 C29.9539763,54.5568628 30.2723131,54.1437829 30.6323369,53.7648105 C30.219257,54.8676201 30.8256128,55.8718969 31.1174215,56.9140709 C31.6025062,57.7932868 31.0188887,58.312479 30.2495748,58.6952411 C29.6735368,58.5626007 29.0899193,58.4526987 28.5025121,58.4072221 C28.4229279,58.9832601 28.2637595,60.1391258 28.1841753,60.7189535 C28.0325864,59.422868 27.5740298,58.2063667 27.4262306,56.9178606 C27.1003144,56.1106495 26.0884581,56.0500139 25.3949387,55.7127285 C25.3722003,55.0646857 25.3456723,54.416643 25.307775,53.7723899 L25.307775,53.7723899 L25.307775,53.7723899 Z" fill="#EB9E1E"></path>
                <path d="M31.8905252,52.9879171 C32.3831892,53.112978 32.8720636,53.2494081 33.360938,53.400997 L33.3647277,53.7951283 C33.360938,54.306741 33.360938,54.8183537 33.3647277,55.3337561 L33.360938,55.7278874 C32.8758533,55.8870558 32.386979,56.0310653 31.8981046,56.1637056 C32.0496936,55.1063727 32.0496936,54.0452501 31.8905252,52.9879171 L31.8905252,52.9879171 L31.8905252,52.9879171 Z" fill="#F3A315"></path>
                <path fill="#814B15" d="M19.2442171,53.7231235 C20.5630409,53.4275251 21.8818648,53.4351045 23.2006887,53.7496516 C21.8818648,53.8102872 20.5592512,53.7534413 19.2442171,53.7231235 L19.2442171,53.7231235 L19.2442171,53.7231235 Z"></path>
                <path fill="#8C4C18" d="M33.360938,53.400997 C34.7745049,53.442684 36.1842821,53.5487962 37.5940594,53.7193338 C36.1880719,53.8330255 34.7707152,53.8140769 33.3647277,53.7951283 L33.360938,53.400997 L33.360938,53.400997 Z"></path>
                <path fill="#884716" d="M38.2004152,53.7079646 C39.5230287,53.4275251 40.8380629,53.442684 42.1568867,53.7572311 C40.8380629,53.8330255 39.5116596,53.7496516 38.2004152,53.7079646 L38.2004152,53.7079646 L38.2004152,53.7079646 Z"></path>
                <path fill="#D7B94D" d="M14.6965486,55.636934 C16.0115827,55.3337561 17.3266169,55.3261767 18.6454407,55.6179854 C17.3341963,55.7203079 16.007793,55.6558826 14.6965486,55.636934 L14.6965486,55.636934 L14.6965486,55.636934 Z"></path>
                <path fill="#D4B54C" d="M19.2517965,55.6028265 C20.5706204,55.3299664 21.8856545,55.3413356 23.2006887,55.636934 C21.8856545,55.7089388 20.5630409,55.6445135 19.2517965,55.6028265 L19.2517965,55.6028265 L19.2517965,55.6028265 Z"></path>
                <path fill="#CBA848" d="M33.3647277,55.3337561 C34.7782946,55.3299664 36.1880719,55.4247095 37.5940594,55.610406 C36.1880719,55.7278874 34.7669255,55.7127285 33.360938,55.7278874 L33.3647277,55.3337561 L33.3647277,55.3337561 Z"></path>
                <path fill="#CEAC4A" d="M38.1852563,55.5876676 C40.0839078,54.9737324 42.1189895,55.4929245 44.0669075,55.4663965 C42.1644662,56.0538036 40.1255948,55.5459807 38.1852563,55.5876676 L38.1852563,55.5876676 L38.1852563,55.5876676 Z"></path>
                <path d="M28.5025121,58.4072221 C29.0899193,58.4526987 29.6735368,58.5626007 30.2495748,58.6952411 C30.3897946,60.3892476 30.8104539,62.0415671 30.9544634,63.7393633 C31.3675433,66.1382585 31.6290342,68.5598919 32.1141189,70.9474179 C32.3756098,72.9521817 32.989545,75.1047448 31.810941,76.9427608 C31.6479828,77.0564525 31.3258563,77.2838359 31.1666879,77.3975277 C30.6247574,77.5112194 29.9084996,77.9432479 29.6204806,77.2194106 C29.49163,76.0104888 30.1699906,74.9114689 30.7422389,73.8996127 C29.9463969,73.9791969 29.1732932,74.1762625 28.381241,74.2861645 C28.7526339,73.9867763 29.1429755,73.7177059 29.5143684,73.4183177 C28.2372315,72.2662417 27.6005579,70.7427728 26.7781878,69.2875189 C26.8501926,68.7001117 26.9335665,68.1164943 27.0207302,67.5366665 C27.1268424,66.968208 27.339067,65.8350806 27.4451792,65.266622 C27.7597263,63.7621017 27.9454228,62.234843 28.1841753,60.7189535 C28.2637595,60.1391258 28.4229279,58.9832601 28.5025121,58.4072221 L28.5025121,58.4072221 L28.5025121,58.4072221 Z" fill="#F2B92E"></path>
                <path d="M26.4901688,71.9289563 C26.569753,71.0459507 26.6682859,70.1629451 26.7781878,69.2875189 C27.6005579,70.7427728 28.2372315,72.2662417 29.5143684,73.4183177 C29.1429755,73.7177059 28.7526339,73.9867763 28.381241,74.2861645 C29.1732932,74.1762625 29.9463969,73.9791969 30.7422389,73.8996127 C30.1699906,74.9114689 29.49163,76.0104888 29.6204806,77.2194106 C29.9084996,77.9432479 30.6247574,77.5112194 31.1666879,77.3975277 C31.0946832,78.0114629 30.8597203,78.5571831 30.3177898,78.8944685 C29.6773265,78.8755199 29.0406529,78.8793096 28.4039793,78.9058377 C27.6725626,78.0758882 27.255693,77.0261347 26.4825894,76.226503 C26.4977483,74.7901977 26.5280661,73.3614719 26.4901688,71.9289563 L26.4901688,71.9289563 L26.4901688,71.9289563 Z" fill="#EC9F29"></path>
                <path fill="#C07322" d="M26.103617,72.3913026 C26.1983601,72.2738212 26.391636,72.042648 26.4901688,71.9289563 C26.5280661,73.3614719 26.4977483,74.7901977 26.4825894,76.226503 C25.7398035,75.1312729 26.3385799,73.6040142 26.103617,72.3913026 L26.103617,72.3913026 L26.103617,72.3913026 Z"></path>
                <path d="M28.4039793,78.9058377 C29.0406529,78.8793096 29.6773265,78.8755199 30.3177898,78.8944685 C30.2344159,79.8305303 30.6058088,80.6907976 31.0871037,81.4714807 C29.931238,81.4639012 28.7905311,81.4601115 27.6384551,81.4373731 C27.8468899,81.1076672 28.0325864,80.7628023 28.1955445,80.410358 C28.4380868,79.944222 28.381241,79.4060812 28.4039793,78.9058377 L28.4039793,78.9058377 L28.4039793,78.9058377 Z" fill="#E28217"></path>
                <path d="M26.5166969,81.8883503 C26.8805104,81.714023 27.255693,81.5662238 27.6384551,81.4373731 C28.7905311,81.4601115 29.931238,81.4639012 31.0871037,81.4714807 C31.2690105,81.4752704 31.6290342,81.4752704 31.810941,81.4752704 C31.7389362,81.9755139 31.6441931,82.4757574 31.5153425,82.9684215 C30.1396728,82.976001 28.7715825,82.9722113 27.3997025,83.0517955 C27.1003144,82.6652436 26.7857673,82.290061 26.5166969,81.8883503 L26.5166969,81.8883503 L26.5166969,81.8883503 Z" fill="#F19C19"></path>
                <path d="M27.3997025,83.0517955 C28.7715825,82.9722113 30.1396728,82.976001 31.5153425,82.9684215 C33.9710835,85.3445783 37.0180214,87.2811271 40.4969877,87.5653564 C41.4406289,87.8988521 42.5169105,89.4677977 40.9290162,89.8240318 C34.759346,92.2835625 27.8241516,91.7264731 21.3475137,90.9836872 C22.1698838,90.5137615 21.2376118,89.8732982 21.495313,89.3578957 C23.9965306,89.6193867 27.4034923,88.3422498 27.3125389,85.3635269 C25.9747664,85.2460455 25.0652327,86.2503223 23.9662128,86.8112014 C23.8222033,86.5951871 23.5303946,86.1631586 23.3863851,85.9471444 C24.2314935,85.4279522 24.9970177,84.8026478 25.7663316,84.1811331 C26.3310004,83.8324785 26.8956693,83.483824 27.3997025,83.0517955 L27.3997025,83.0517955 L27.3997025,83.0517955 Z M28.8814845,84.5638952 C27.805203,85.2915222 28.915592,87.0120567 28.4229279,87.9253802 C28.6427319,88.3990956 28.161437,90.8927338 29.5295273,90.5819765 C29.6318498,89.6307558 29.8327052,87.7321043 29.9350277,86.7846733 C30.5906499,86.1328408 29.9426072,84.1735537 28.8814845,84.5638952 L28.8814845,84.5638952 L28.8814845,84.5638952 Z M31.0643654,85.6439665 C30.9014073,86.69372 31.5987164,87.584305 32.5044604,88.0087541 C34.4940654,89.4867463 37.0976056,89.4374799 39.4358651,89.0054514 C38.943201,88.3157217 37.8517606,88.3460395 37.1127644,87.9594877 C35.0132575,87.4289264 33.2927229,85.5416439 31.0643654,85.6439665 L31.0643654,85.6439665 L31.0643654,85.6439665 Z" fill="#F4BC40"></path>
                <path d="M28.8814845,84.5638952 C29.9426072,84.1735537 30.5906499,86.1328408 29.9350277,86.7846733 C29.8327052,87.7321043 29.6318498,89.6307558 29.5295273,90.5819765 C28.161437,90.8927338 28.6427319,88.3990956 28.4229279,87.9253802 C28.915592,87.0120567 27.805203,85.2915222 28.8814845,84.5638952 L28.8814845,84.5638952 L28.8814845,84.5638952 Z" fill="#EA8A1E"></path>
                <path d="M23.9662128,86.8112014 C25.0652327,86.2503223 25.9747664,85.2460455 27.3125389,85.3635269 C27.4034923,88.3422498 23.9965306,89.6193867 21.495313,89.3578957 C21.7492245,88.8273344 22.757291,88.3195114 21.9500798,87.804109 C22.2722063,87.0764821 22.9429874,86.7467761 23.9662128,86.8112014 L23.9662128,86.8112014 L23.9662128,86.8112014 Z" fill="#ED9F22"></path>
                <path d="M31.0643654,85.6439665 C33.2927229,85.5416439 35.0132575,87.4289264 37.1127644,87.9594877 C37.8517606,88.3460395 38.943201,88.3157217 39.4358651,89.0054514 C37.0976056,89.4374799 34.4940654,89.4867463 32.5044604,88.0087541 C31.5987164,87.584305 30.9014073,86.69372 31.0643654,85.6439665 L31.0643654,85.6439665 L31.0643654,85.6439665 Z" fill="#EEA226"></path>
                <path d="M21.2376118,86.7657247 C21.9273415,86.4208598 22.6360198,86.1176819 23.3863851,85.9471444 C23.5303946,86.1631586 23.8222033,86.5951871 23.9662128,86.8112014 C22.9429874,86.7467761 22.2722063,87.0764821 21.9500798,87.804109 C21.343724,88.0580205 20.7222093,88.2854039 20.0627974,88.3422498 C20.4228212,87.7927398 20.8396908,87.2849169 21.2376118,86.7657247 L21.2376118,86.7657247 L21.2376118,86.7657247 Z" fill="#ECA831"></path>
                <path d="M18.5469079,87.4706133 C19.4337033,87.2167018 20.343237,87.008267 21.2376118,86.7657247 C20.8396908,87.2849169 20.4228212,87.7927398 20.0627974,88.3422498 C20.7222093,88.2854039 21.343724,88.0580205 21.9500798,87.804109 C22.757291,88.3195114 21.7492245,88.8273344 21.495313,89.3578957 C21.2376118,89.8732982 22.1698838,90.5137615 21.3475137,90.9836872 C21.0329667,91.590043 20.7563168,92.2191371 20.4531389,92.8330724 C20.191648,92.8141238 19.6610867,92.7724368 19.3995958,92.7496985 C19.285904,92.6928526 19.0547309,92.5715815 18.9410392,92.5147356 C19.1835815,91.9614359 19.4867594,91.3475007 19.2404274,90.7373552 C18.1414075,90.4834437 17.269771,88.9220775 16.337499,90.286378 C16.4549804,88.9410261 17.3758833,88.0201233 18.5469079,87.4706133 L18.5469079,87.4706133 L18.5469079,87.4706133 Z" fill="#E78725"></path>
                <path d="M15.0641518,88.2399272 C16.2313867,87.9973849 17.3645141,87.6297817 18.5469079,87.4706133 C17.3758833,88.0201233 16.4549804,88.9410261 16.337499,90.286378 C17.269771,88.9220775 18.1414075,90.4834437 19.2404274,90.7373552 C19.4867594,91.3475007 19.1835815,91.9614359 18.9410392,92.5147356 C17.4782058,92.0637585 15.8372555,92.0523893 14.5222213,91.2072809 C13.8287019,90.6880888 12.8130559,89.9074057 13.6430054,89.0244 C14.1129312,88.7515399 14.5790672,88.4748901 15.0641518,88.2399272 L15.0641518,88.2399272 L15.0641518,88.2399272 Z" fill="#E4781A"></path>
                <path d="M40.4969877,87.5653564 C41.2549325,87.6487303 42.0052978,87.8116885 42.7518734,87.9784363 C42.9375698,88.0769691 43.3089627,88.270245 43.4946592,88.3687778 C44.2488142,88.8083858 45.0219179,89.3389471 45.2644602,90.2371116 C44.4648285,91.3588699 43.0891588,91.6430991 41.8802369,92.1054454 C34.8654583,93.6251246 27.5664504,93.8373492 20.4531389,92.8330724 C20.7563168,92.2191371 21.0329667,91.590043 21.3475137,90.9836872 C27.8241516,91.7264731 34.759346,92.2835625 40.9290162,89.8240318 C42.5169105,89.4677977 41.4406289,87.8988521 40.4969877,87.5653564 L40.4969877,87.5653564 L40.4969877,87.5653564 Z" fill="#F19C1F"></path>
            </g>
        </g>
        <g id="Oval-4-+-Oval-8-Copy-2-Copy" sketch:type="MSLayerGroup" transform="translate(70.103142, 72.141573) rotate(-10.000000) translate(-70.103142, -72.141573) translate(60.103142, 65.641573)">
            <path d="M6.85967026,10.1761652 C7.85027642,10.2131284 16.3812648,12.026637 16.3812648,12.026637 C16.3812648,12.026637 18.8246953,3.4389116 16.3812648,1.17860114 C15.3670849,0.240427771 8.81942274,1.29472968 6.85967026,1.17860114 C-0.713525734,0.729838281 -1.5518752,9.86229885 6.85967026,10.1761652 Z" id="Oval-4" fill="#3F3333" sketch:type="MSShapeGroup" transform="translate(9.164255, 6.406454) rotate(185.000000) translate(-9.164255, -6.406454) "></path>
            <path d="M16.5841511,10.5943197 C17.9532113,10.5943197 19.0630538,9.2511739 19.0630538,7.59431965 C19.0630538,5.9374654 14.1052484,5.9374654 14.1052484,7.59431965 C14.1052484,9.2511739 15.215091,10.5943197 16.5841511,10.5943197 Z" id="Oval-8-Copy-2-Copy" fill="#000000" sketch:type="MSShapeGroup" transform="translate(16.584151, 8.472999) rotate(-77.000000) translate(-16.584151, -8.472999) "></path>
        </g>
        <g id="fingers-copy" sketch:type="MSLayerGroup" transform="translate(81.459803, 78.348963) rotate(-87.000000) translate(-81.459803, -78.348963) translate(70.459803, 73.348963)" fill="#000000">
            <ellipse id="Oval-8" sketch:type="MSShapeGroup" cx="19.9462936" cy="5.94903451" rx="2" ry="3"></ellipse>
            <ellipse id="Oval-8-Copy" sketch:type="MSShapeGroup" cx="11.1859842" cy="5.0082228" rx="2.5" ry="4"></ellipse>
            <ellipse id="Oval-8-Copy-2" sketch:type="MSShapeGroup" cx="2.68735473" cy="3.06055875" rx="2" ry="3"></ellipse>
        </g>
    </g>
</svg>